<svg width="73" height="6" viewBox="0 0 73 6" fill="none" xmlns="http://www.w3.org/2000/svg">
<mask id="path-1-inside-1_431_16" fill="white">
<path fill-rule="evenodd" clip-rule="evenodd" d="M36 2V0H37V2H73V6H72V3H1V6H0V2H36Z"/>
</mask>
<path d="M36 0V-1H35V0H36ZM36 2V3H37V2H36ZM37 0H38V-1H37V0ZM37 2H36V3H37V2ZM73 2H74V1H73V2ZM73 6V7H74V6H73ZM72 6H71V7H72V6ZM72 3H73V2H72V3ZM1 3V2H-2.38419e-07V3H1ZM1 6V7H2V6H1ZM0 6H-1V7H0V6ZM0 2V1H-1V2H0ZM35 0V2H37V0H35ZM37 -1H36V1H37V-1ZM38 2V0H36V2H38ZM72 7H73V5H72V7ZM71 3V6H73V3H71ZM2 6V3H-2.38419e-07V6H2ZM0 7H1V5H0V7ZM73 1H37V3H73V1ZM74 6V2H72V6H74ZM1 4H72V2H1V4ZM-1 2V6H1V2H-1ZM36 1H0V3H36V1Z" fill="black" mask="url(#path-1-inside-1_431_16)"/>
</svg>
