<svg xmlns="http://www.w3.org/2000/svg" xml:space="preserve" width="7.76mm" height="7.76mm" version="1.1" style="shape-rendering:geometricPrecision; text-rendering:geometricPrecision; image-rendering:optimizeQuality; fill-rule:evenodd; clip-rule:evenodd"
viewBox="0 0 72.71 72.71"
 xmlns:xlink="http://www.w3.org/1999/xlink"
 xmlns:xodm="http://www.corel.com/coreldraw/odm/2003">
 <defs>
  <style type="text/css">
   <![CDATA[
    .fil0 {fill:black;fill-rule:nonzero}
   ]]>
  </style>
 </defs>
 <g id="Слой_x0020_1">
  <metadata id="CorelCorpID_0Corel-Layer"/>
  <g id="_1772384969296">
   <g>
    <g>
     <path class="fil0" d="M36.36 27.05c-5.13,0 -9.3,4.17 -9.3,9.3 0,5.13 4.17,9.3 9.3,9.3 5.13,0 9.3,-4.17 9.3,-9.3 0,-5.13 -4.17,-9.3 -9.3,-9.3z"/>
    </g>
   </g>
   <g>
    <g>
     <path class="fil0" d="M69.5 27.29l-2.15 0c-0.7,-2.32 -1.63,-4.6 -2.71,-6.62l1.6 -1.61c1.24,-1.25 1.24,-3.28 -0.01,-4.52l-8.2 -8.22c-0.6,-0.6 -1.42,-0.99 -2.27,-0.99 -0.01,0 -0.01,0 -0.02,0 -0.86,0 -1.68,0.4 -2.28,1.02l-1.47 1.56c-2.01,-1.09 -4.2,-2 -6.43,-2.67l0 -2.03c0,-1.77 -1.44,-3.2 -3.21,-3.2l-11.98 0c-1.77,0 -3.21,1.43 -3.21,3.2l0 2.03c-2.24,0.68 -4.44,1.57 -6.44,2.65l-1.52 -1.56c-0.6,-0.61 -1.42,-0.99 -2.28,-0.99 -0,0 -0.01,0 -0.01,0 -0.85,0 -1.67,0.38 -2.27,0.98l-8.18 8.22c-1.24,1.24 -1.25,3.25 -0.02,4.5l1.62 1.65c-1.08,2.02 -2.01,4.29 -2.71,6.62l-2.15 0c-1.77,0 -3.21,1.43 -3.21,3.2l0 11.73c0,1.77 1.44,3.2 3.21,3.2l2.16 0c0.67,2.2 1.58,4.37 2.67,6.36l-1.53 1.49c-0.61,0.6 -0.96,1.42 -0.97,2.27 -0,0.86 0.34,1.68 0.94,2.28l8.2 8.14c0.61,0.6 1.44,0.94 2.29,0.93 0.86,-0.01 1.68,-0.36 2.28,-0.98l1.48 -1.53c1.99,1.07 4.18,1.97 6.42,2.65l0 2.48c0,1.77 1.44,3.2 3.21,3.2l11.98 0c1.77,0 3.21,-1.43 3.21,-3.2l0 -2.48c2.24,-0.68 4.44,-1.56 6.44,-2.65l1.52 1.57c0.6,0.61 1.42,1 2.28,1 0,0 0.01,0 0.01,0 0.85,0 1.67,-0.39 2.27,-0.99l8.18 -8.23c0.61,-0.61 0.95,-1.44 0.94,-2.3 -0.01,-0.86 -0.37,-1.68 -1,-2.28l-1.49 -1.41c1.07,-1.98 1.97,-4.13 2.64,-6.32l2.16 0c1.77,0 3.21,-1.43 3.21,-3.2l0 -11.73c0,-1.77 -1.44,-3.2 -3.21,-3.2zm-33.15 28.69c-10.99,0 -19.92,-8.91 -19.92,-19.87 0,-10.95 8.94,-19.87 19.92,-19.87 10.99,0 19.92,8.91 19.92,19.87 0,10.95 -8.94,19.87 -19.92,19.87z"/>
    </g>
   </g>
  </g>
 </g>
</svg>
