<svg xmlns="http://www.w3.org/2000/svg" xml:space="preserve" width="4.9402mm" height="5.29mm" version="1.1" style="shape-rendering:geometricPrecision; text-rendering:geometricPrecision; image-rendering:optimizeQuality; fill-rule:evenodd; clip-rule:evenodd"
viewBox="0 0 13.36 14.31"
 xmlns:xlink="http://www.w3.org/1999/xlink"
 xmlns:xodm="http://www.corel.com/coreldraw/odm/2003">
 <defs>
  <style type="text/css">
   <![CDATA[
    .fil0 {fill:#FFE82D;fill-rule:nonzero}
   ]]>
  </style>
 </defs>
 <g id="Слой_x0020_1">
  <metadata id="CorelCorpID_0Corel-Layer"/>
  <g id="_2705274075888">
   <path class="fil0" d="M11.41 2.1c-2.61,-2.8 -6.84,-2.8 -9.45,-0.01 -2.61,2.79 -2.61,7.32 -0.01,10.12 2.61,2.8 6.84,2.8 9.45,0.01 2.61,-2.79 2.61,-7.32 0.01,-10.12zm-3.79 9.6c0,0.11 -0.08,0.2 -0.19,0.2l-1.49 0c-0.1,0 -0.19,-0.09 -0.19,-0.2l0 -5.93c0,-0.11 0.08,-0.2 0.19,-0.2l1.49 0c0.1,0 0.19,0.09 0.19,0.2l0 5.93zm-0.93 -6.96c-0.6,0 -1.08,-0.52 -1.08,-1.16 0,-0.64 0.49,-1.16 1.08,-1.16 0.6,0 1.08,0.52 1.08,1.16 0,0.64 -0.49,1.16 -1.08,1.16z"/>
  </g>
 </g>
</svg>
